# xmcd
#
# Track frame offsets:
# 150
# 14685
# 30530
# 50752
# 66053
# 85583
# 105495
# 119150
# 141632
# 165776
# 183158
# 199831
# 223850
# 236288
# 249879
# 263819
# 289298
# 309557
#
# Disc length: 4373 seconds
#
#
# Revision: 0
# Processed by: cddbd v1.5.1PL2 Copyright (c) Steve Scherf et al.
# Submitted via: FreeRIP 2.92 
#
DISCID=03111312
DTITLE=Mirek Hoffmann - Pribehy 2
DYEAR=2005
DGENRE=Country
TTITLE0=01.Za modrou horou
TTITLE1=02.Byl to peknej rok
TTITLE2=03.Sam jen sam
TTITLE3=04.Nemaluj certa na zed
TTITLE4=05.Prijde Buh
TTITLE5=06.Mexicka holka
TTITLE6=07.Prosim te, stuj
TTITLE7=08.Cernej pasazer
TTITLE8=09.Modra ruze
TTITLE9=10.Policajt
TTITLE10=11.Citim vuni jara
TTITLE11=12.Mlecnou drahou
TTITLE12=13.Nevm, co je rub a co je lic
TTITLE13=14.Mustang Joe
TTITLE14=15.Zluty lebky
TTITLE15=16.Holka z New Orleans
TTITLE16=17.Adieu, Amore
TTITLE17=18.Tri flasky v regalu
EXTD=
EXTT0=
EXTT1=
EXTT2=
EXTT3=
EXTT4=
EXTT5=
EXTT6=
EXTT7=
EXTT8=
EXTT9=
EXTT10=
EXTT11=
EXTT12=
EXTT13=
EXTT14=
EXTT15=
EXTT16=
EXTT17=
PLAYORDER=
